<svg xmlns="http://www.w3.org/2000/svg" xmlns:xlink="http://www.w3.org/1999/xlink" version="1.1" width="256" height="256" viewBox="0 0 256 256" xml:space="preserve">
<desc>Created with Fabric.js 1.7.22</desc>
<defs>
</defs>
<g transform="translate(128 128) scale(0.72 0.72)" style="">
	<g style="stroke: none; stroke-width: 0; stroke-dasharray: none; stroke-linecap: butt; stroke-linejoin: miter; stroke-miterlimit: 10; fill: none; fill-rule: nonzero; opacity: 1;" transform="translate(-175.05 -175.05000000000004) scale(3.89 3.89)" >
	<path d="M 50.81 55.433 c -10.086 0 -18.291 -8.205 -18.291 -18.291 c 0 -4.389 1.583 -8.636 4.456 -11.958 c 5.45 -6.282 10.458 -12.464 11.88 -19.033 c 0.2 -0.92 1.014 -1.576 1.955 -1.576 l 0 0 c 0.941 0 1.756 0.657 1.955 1.577 c 1.422 6.568 6.43 12.75 11.877 19.03 c 2.875 3.324 4.458 7.57 4.458 11.96 C 69.1 47.228 60.895 55.433 50.81 55.433 z M 50.81 12.666 c -2.469 5.264 -6.514 10.183 -10.812 15.138 c -2.243 2.593 -3.479 5.911 -3.479 9.339 c 0 7.88 6.411 14.291 14.291 14.291 S 65.1 45.022 65.1 37.142 c 0 -3.429 -1.236 -6.746 -3.481 -9.341 C 57.322 22.848 53.277 17.928 50.81 12.666 z" style="stroke: none; stroke-width: 1; stroke-dasharray: none; stroke-linecap: butt; stroke-linejoin: miter; stroke-miterlimit: 10; fill: rgb(0,0,0); fill-rule: nonzero; opacity: 1;" transform=" matrix(1 0 0 1 0 0) " stroke-linecap="round" />
	<path d="M 22.53 59.608 c -0.251 0 -0.506 -0.048 -0.753 -0.148 c -6.927 -2.817 -11.402 -9.47 -11.402 -16.948 c 0 -4.389 1.583 -8.636 4.456 -11.958 c 5.45 -6.283 10.458 -12.465 11.88 -19.032 c 0.199 -0.92 1.013 -1.577 1.955 -1.577 s 1.755 0.656 1.955 1.577 c 0.479 2.21 1.38 4.468 2.754 6.901 c 0.543 0.962 0.204 2.182 -0.758 2.725 c -0.961 0.544 -2.181 0.204 -2.725 -0.758 c -0.451 -0.799 -0.858 -1.584 -1.223 -2.36 c -2.468 5.264 -6.515 10.186 -10.814 15.143 c -2.243 2.593 -3.479 5.911 -3.479 9.339 c 0 5.844 3.497 11.042 8.909 13.243 c 1.023 0.416 1.515 1.583 1.099 2.606 C 24.067 59.138 23.319 59.608 22.53 59.608 z" style="stroke: none; stroke-width: 1; stroke-dasharray: none; stroke-linecap: butt; stroke-linejoin: miter; stroke-miterlimit: 10; fill: rgb(0,0,0); fill-rule: nonzero; opacity: 1;" transform=" matrix(1 0 0 1 0 0) " stroke-linecap="round" />
	<path d="M 89.999 44.895 c 0 -0.065 -0.011 -0.129 -0.017 -0.193 c -0.006 -0.065 -0.007 -0.131 -0.02 -0.196 c -0.014 -0.073 -0.04 -0.143 -0.062 -0.213 c -0.017 -0.054 -0.028 -0.109 -0.049 -0.161 c -0.047 -0.116 -0.106 -0.227 -0.174 -0.332 c -0.003 -0.005 -0.005 -0.011 -0.009 -0.017 c -0.001 -0.002 -0.003 -0.003 -0.004 -0.005 c -0.072 -0.108 -0.154 -0.208 -0.245 -0.3 c -0.038 -0.038 -0.081 -0.068 -0.122 -0.102 c -0.059 -0.05 -0.115 -0.103 -0.18 -0.147 c -0.053 -0.036 -0.11 -0.061 -0.166 -0.091 c -0.059 -0.032 -0.115 -0.068 -0.177 -0.094 c -0.115 -0.048 -0.235 -0.085 -0.356 -0.111 c -0.006 -0.001 -0.012 -0.004 -0.018 -0.006 l -0.001 0 c 0 0 0 0 0 0 L 78.6 40.925 c -1.088 -0.225 -2.14 0.477 -2.36 1.56 c -0.221 1.082 0.478 2.139 1.56 2.359 l 5.07 1.035 l -31.01 20.494 l -16.631 -6.31 c -0.602 -0.228 -1.276 -0.153 -1.812 0.201 L 0.897 81.756 c -0.922 0.609 -1.175 1.851 -0.566 2.771 c 0.385 0.582 1.021 0.897 1.67 0.897 c 0.378 0 0.761 -0.107 1.101 -0.331 l 31.664 -20.927 l 16.632 6.31 c 0.6 0.228 1.275 0.153 1.812 -0.201 l 31.865 -21.059 l -1.035 5.069 c -0.221 1.083 0.478 2.139 1.56 2.36 c 0.136 0.027 0.27 0.04 0.402 0.04 c 0.931 0 1.765 -0.652 1.958 -1.6 l 2.001 -9.801 c 0.004 -0.021 0.003 -0.041 0.006 -0.062 C 89.985 45.115 89.999 45.006 89.999 44.895 z" style="stroke: none; stroke-width: 1; stroke-dasharray: none; stroke-linecap: butt; stroke-linejoin: miter; stroke-miterlimit: 10; fill: rgb(0,0,0); fill-rule: nonzero; opacity: 1;" transform=" matrix(1 0 0 1 0 0) " stroke-linecap="round" />
</g>
</g>
</svg>