<svg xmlns="http://www.w3.org/2000/svg" xmlns:xlink="http://www.w3.org/1999/xlink" version="1.1" width="256" height="256" viewBox="0 0 256 256" xml:space="preserve">
<desc>Created with Fabric.js 1.7.22</desc>
<defs>
</defs>
<g transform="translate(128 128) scale(0.72 0.72)" style="">
	<g style="stroke: none; stroke-width: 0; stroke-dasharray: none; stroke-linecap: butt; stroke-linejoin: miter; stroke-miterlimit: 10; fill: none; fill-rule: nonzero; opacity: 1;" transform="translate(-175.05 -175.05000000000004) scale(3.89 3.89)" >
	<path d="M 45 57.985 c -5.118 0 -9.281 -4.163 -9.281 -9.281 c 0 -2.241 0.81 -4.405 2.28 -6.093 l 0.125 -0.137 c 2.568 -2.807 4.347 -5.879 5.47 -9.43 c 0.195 -0.616 0.761 -1.03 1.407 -1.03 s 1.212 0.414 1.407 1.03 c 1.123 3.553 2.902 6.625 5.437 9.394 l 0.097 0.118 c 1.51 1.703 2.341 3.885 2.341 6.148 C 54.281 53.822 50.118 57.985 45 57.985 z M 45 35.093 c -1.217 3.231 -2.982 6.088 -5.37 8.695 l -0.126 0.14 c -1.15 1.32 -1.785 3.018 -1.785 4.776 c 0 4.015 3.267 7.281 7.281 7.281 s 7.281 -3.267 7.281 -7.281 c 0 -1.788 -0.662 -3.512 -1.865 -4.854 l -0.077 -0.095 C 47.966 41.154 46.211 38.31 45 35.093 z" style="stroke: none; stroke-width: 1; stroke-dasharray: none; stroke-linecap: butt; stroke-linejoin: miter; stroke-miterlimit: 10; fill: rgb(0,0,0); fill-rule: nonzero; opacity: 1;" transform=" matrix(1 0 0 1 0 0) " stroke-linecap="round" />
	<rect x="12.84" y="70.49" rx="0" ry="0" width="2" height="10.87" style="stroke: none; stroke-width: 1; stroke-dasharray: none; stroke-linecap: butt; stroke-linejoin: miter; stroke-miterlimit: 10; fill: rgb(0,0,0); fill-rule: nonzero; opacity: 1;" transform=" matrix(1 0 0 1 0 0) "/>
	<rect x="75.17" y="70.49" rx="0" ry="0" width="2" height="10.87" style="stroke: none; stroke-width: 1; stroke-dasharray: none; stroke-linecap: butt; stroke-linejoin: miter; stroke-miterlimit: 10; fill: rgb(0,0,0); fill-rule: nonzero; opacity: 1;" transform=" matrix(1 0 0 1 0 0) "/>
	<rect x="75.17" y="27.15" rx="0" ry="0" width="2" height="35.7" style="stroke: none; stroke-width: 1; stroke-dasharray: none; stroke-linecap: butt; stroke-linejoin: miter; stroke-miterlimit: 10; fill: rgb(0,0,0); fill-rule: nonzero; opacity: 1;" transform=" matrix(1 0 0 1 0 0) "/>
	<rect x="75.17" y="8.64" rx="0" ry="0" width="2" height="10.87" style="stroke: none; stroke-width: 1; stroke-dasharray: none; stroke-linecap: butt; stroke-linejoin: miter; stroke-miterlimit: 10; fill: rgb(0,0,0); fill-rule: nonzero; opacity: 1;" transform=" matrix(1 0 0 1 0 0) "/>
	<rect x="12.84" y="8.64" rx="0" ry="0" width="2" height="10.87" style="stroke: none; stroke-width: 1; stroke-dasharray: none; stroke-linecap: butt; stroke-linejoin: miter; stroke-miterlimit: 10; fill: rgb(0,0,0); fill-rule: nonzero; opacity: 1;" transform=" matrix(1 0 0 1 0 0) "/>
	<rect x="12.84" y="27.15" rx="0" ry="0" width="2" height="35.7" style="stroke: none; stroke-width: 1; stroke-dasharray: none; stroke-linecap: butt; stroke-linejoin: miter; stroke-miterlimit: 10; fill: rgb(0,0,0); fill-rule: nonzero; opacity: 1;" transform=" matrix(1 0 0 1 0 0) "/>
	<path d="M 80.288 9.638 H 9.712 c -2.657 0 -4.819 -2.162 -4.819 -4.819 S 7.055 0 9.712 0 h 70.576 c 2.657 0 4.819 2.162 4.819 4.819 S 82.945 9.638 80.288 9.638 z M 9.712 2 C 8.158 2 6.893 3.265 6.893 4.819 c 0 1.555 1.265 2.819 2.819 2.819 h 70.576 c 1.555 0 2.819 -1.265 2.819 -2.819 C 83.107 3.265 81.843 2 80.288 2 H 9.712 z" style="stroke: none; stroke-width: 1; stroke-dasharray: none; stroke-linecap: butt; stroke-linejoin: miter; stroke-miterlimit: 10; fill: rgb(0,0,0); fill-rule: nonzero; opacity: 1;" transform=" matrix(1 0 0 1 0 0) " stroke-linecap="round" />
	<path d="M 80.288 90 H 9.712 c -2.657 0 -4.819 -2.162 -4.819 -4.819 s 2.162 -4.818 4.819 -4.818 h 70.576 c 2.657 0 4.819 2.161 4.819 4.818 S 82.945 90 80.288 90 z M 9.712 82.362 c -1.554 0 -2.819 1.265 -2.819 2.818 C 6.893 86.735 8.158 88 9.712 88 h 70.576 c 1.555 0 2.819 -1.265 2.819 -2.819 c 0 -1.554 -1.265 -2.818 -2.819 -2.818 H 9.712 z" style="stroke: none; stroke-width: 1; stroke-dasharray: none; stroke-linecap: butt; stroke-linejoin: miter; stroke-miterlimit: 10; fill: rgb(0,0,0); fill-rule: nonzero; opacity: 1;" transform=" matrix(1 0 0 1 0 0) " stroke-linecap="round" />
	<path d="M 80.288 28.149 H 9.712 c -2.657 0 -4.819 -2.162 -4.819 -4.819 s 2.162 -4.819 4.819 -4.819 h 70.576 c 2.657 0 4.819 2.162 4.819 4.819 S 82.945 28.149 80.288 28.149 z M 9.712 20.511 c -1.554 0 -2.819 1.265 -2.819 2.819 s 1.265 2.819 2.819 2.819 h 70.576 c 1.555 0 2.819 -1.265 2.819 -2.819 s -1.265 -2.819 -2.819 -2.819 H 9.712 z" style="stroke: none; stroke-width: 1; stroke-dasharray: none; stroke-linecap: butt; stroke-linejoin: miter; stroke-miterlimit: 10; fill: rgb(0,0,0); fill-rule: nonzero; opacity: 1;" transform=" matrix(1 0 0 1 0 0) " stroke-linecap="round" />
	<path d="M 80.288 71.489 H 9.712 c -2.657 0 -4.819 -2.162 -4.819 -4.819 s 2.162 -4.819 4.819 -4.819 h 70.576 c 2.657 0 4.819 2.162 4.819 4.819 S 82.945 71.489 80.288 71.489 z M 9.712 63.851 c -1.554 0 -2.819 1.265 -2.819 2.819 s 1.265 2.819 2.819 2.819 h 70.576 c 1.555 0 2.819 -1.265 2.819 -2.819 s -1.265 -2.819 -2.819 -2.819 H 9.712 z" style="stroke: none; stroke-width: 1; stroke-dasharray: none; stroke-linecap: butt; stroke-linejoin: miter; stroke-miterlimit: 10; fill: rgb(0,0,0); fill-rule: nonzero; opacity: 1;" transform=" matrix(1 0 0 1 0 0) " stroke-linecap="round" />
</g>
</g>
</svg>