<svg xmlns="http://www.w3.org/2000/svg" xmlns:xlink="http://www.w3.org/1999/xlink" version="1.1" width="256" height="256" viewBox="0 0 256 256" xml:space="preserve">
<desc>Created with Fabric.js 1.7.22</desc>
<defs>
</defs>
<g transform="translate(128 128) scale(0.72 0.72)" style="">
	<g style="stroke: none; stroke-width: 0; stroke-dasharray: none; stroke-linecap: butt; stroke-linejoin: miter; stroke-miterlimit: 10; fill: none; fill-rule: nonzero; opacity: 1;" transform="translate(-175.05 -175.05000000000004) scale(3.89 3.89)" >
	<path d="M 49.316 84 h -8.923 H 14.257 V 66.673 h 32.176 c 1.657 0 3 -1.343 3 -3 s -1.343 -3 -3 -3 H 14.257 V 29.327 h 52.272 v 2.058 c 0 1.657 1.343 3 3 3 s 3 -1.343 3 -3 v -2.058 h 3.45 c 1.657 0 3 -1.343 3 -3 s -1.343 -3 -3 -3 h -3.45 V 6 h 3.45 c 1.657 0 3 -1.343 3 -3 s -1.343 -3 -3 -3 h -6.45 H 11.257 h -6.45 c -1.657 0 -3 1.343 -3 3 s 1.343 3 3 3 h 3.45 v 17.327 h -3.45 c -1.657 0 -3 1.343 -3 3 s 1.343 3 3 3 h 3.45 v 31.346 h -3.45 c -1.657 0 -3 1.343 -3 3 s 1.343 3 3 3 h 3.45 V 84 h -3.45 c -1.657 0 -3 1.343 -3 3 s 1.343 3 3 3 h 6.45 h 29.136 h 8.923 c 1.657 0 3 -1.343 3 -3 S 50.974 84 49.316 84 z M 14.257 6 h 52.272 v 17.327 H 14.257 V 6 z" style="stroke: none; stroke-width: 1; stroke-dasharray: none; stroke-linecap: butt; stroke-linejoin: miter; stroke-miterlimit: 10; fill: rgb(0,0,0); fill-rule: nonzero; opacity: 1;" transform=" matrix(1 0 0 1 0 0) " stroke-linecap="round" />
	<path d="M 83.506 58.995 c -0.065 -0.09 -0.136 -0.177 -0.212 -0.261 c -5.155 -5.629 -8.62 -11.613 -10.904 -18.833 c -0.395 -1.248 -1.553 -2.095 -2.86 -2.095 c -1.309 0 -2.466 0.848 -2.86 2.095 c -2.283 7.22 -5.748 13.204 -10.903 18.833 c -0.026 0.029 -0.052 0.059 -0.077 0.089 c -0.083 0.089 -0.165 0.178 -0.236 0.261 c -2.957 3.395 -4.586 7.746 -4.586 12.253 C 50.866 81.628 59.238 90 69.529 90 s 18.664 -8.372 18.664 -18.663 C 88.193 66.785 86.531 62.417 83.506 58.995 z M 69.529 84 c -6.982 0 -12.663 -5.681 -12.663 -12.663 c 0 -3.058 1.104 -6.01 3.117 -8.32 l 0.217 -0.235 c 0.028 -0.032 0.057 -0.063 0.084 -0.096 c 3.834 -4.206 6.893 -8.726 9.245 -13.681 c 2.327 4.899 5.343 9.372 9.116 13.537 c 0.063 0.085 0.131 0.168 0.204 0.247 c 2.156 2.35 3.344 5.386 3.344 8.548 C 82.193 78.319 76.513 84 69.529 84 z" style="stroke: none; stroke-width: 1; stroke-dasharray: none; stroke-linecap: butt; stroke-linejoin: miter; stroke-miterlimit: 10; fill: rgb(0,0,0); fill-rule: nonzero; opacity: 1;" transform=" matrix(1 0 0 1 0 0) " stroke-linecap="round" />
</g>
</g>
</svg>