<svg xmlns="http://www.w3.org/2000/svg" xmlns:xlink="http://www.w3.org/1999/xlink" version="1.1" width="256" height="256" viewBox="0 0 256 256" xml:space="preserve">
<desc>Created with Fabric.js 1.7.22</desc>
<defs>
</defs>
<g transform="translate(128 128) scale(0.72 0.72)" style="">
	<g style="stroke: none; stroke-width: 0; stroke-dasharray: none; stroke-linecap: butt; stroke-linejoin: miter; stroke-miterlimit: 10; fill: none; fill-rule: nonzero; opacity: 1;" transform="translate(-175.05 -175.05000000000004) scale(3.89 3.89)" >
	<path d="M 43.999 90 c -0.188 0 -0.378 -0.026 -0.566 -0.082 c -0.914 -0.27 -1.51 -1.146 -1.426 -2.095 L 45.076 53.3 H 21.711 c -0.701 0 -1.351 -0.367 -1.713 -0.967 c -0.362 -0.601 -0.383 -1.347 -0.056 -1.967 L 45.954 1.067 c 0.444 -0.842 1.421 -1.256 2.335 -0.985 c 0.913 0.27 1.51 1.146 1.426 2.095 l -3.068 34.523 h 23.365 c 0.701 0 1.351 0.367 1.713 0.967 c 0.361 0.6 0.383 1.346 0.056 1.966 L 45.768 88.933 C 45.415 89.602 44.726 90 43.999 90 z M 25.028 49.3 h 22.234 c 0.562 0 1.097 0.235 1.476 0.649 c 0.379 0.414 0.566 0.969 0.517 1.527 l -2.382 26.793 l 19.823 -37.569 H 44.461 c -0.561 0 -1.097 -0.236 -1.476 -0.65 c -0.379 -0.414 -0.566 -0.968 -0.517 -1.527 l 2.381 -26.793 L 25.028 49.3 z" style="stroke: none; stroke-width: 1; stroke-dasharray: none; stroke-linecap: butt; stroke-linejoin: miter; stroke-miterlimit: 10; fill: rgb(0,0,0); fill-rule: nonzero; opacity: 1;" transform=" matrix(1 0 0 1 0 0) " stroke-linecap="round" />
	<path d="M 59.829 81.722 c -0.779 0 -1.52 -0.459 -1.843 -1.222 c -0.431 -1.018 0.046 -2.191 1.062 -2.621 c 13.397 -5.666 22.054 -18.724 22.054 -33.267 c 0 -16.453 -11.108 -30.825 -27.012 -34.949 c -1.069 -0.277 -1.711 -1.369 -1.434 -2.438 c 0.276 -1.069 1.37 -1.71 2.437 -1.434 c 17.669 4.582 30.009 20.545 30.009 38.821 c 0 16.154 -9.615 30.658 -24.495 36.951 C 60.352 81.671 60.089 81.722 59.829 81.722 z" style="stroke: none; stroke-width: 1; stroke-dasharray: none; stroke-linecap: butt; stroke-linejoin: miter; stroke-miterlimit: 10; fill: rgb(0,0,0); fill-rule: nonzero; opacity: 1;" transform=" matrix(1 0 0 1 0 0) " stroke-linecap="round" />
	<path d="M 38.082 84.088 c -0.12 0 -0.241 -0.011 -0.363 -0.033 C 18.701 80.565 4.898 63.977 4.898 44.612 c 0 -17.005 10.774 -32.214 26.809 -37.846 c 1.041 -0.364 2.184 0.182 2.55 1.225 c 0.366 1.042 -0.182 2.184 -1.225 2.55 C 18.597 15.611 8.898 29.303 8.898 44.612 c 0 17.433 12.425 32.367 29.543 35.509 c 1.086 0.199 1.806 1.241 1.606 2.328 C 39.87 83.413 39.028 84.088 38.082 84.088 z" style="stroke: none; stroke-width: 1; stroke-dasharray: none; stroke-linecap: butt; stroke-linejoin: miter; stroke-miterlimit: 10; fill: rgb(0,0,0); fill-rule: nonzero; opacity: 1;" transform=" matrix(1 0 0 1 0 0) " stroke-linecap="round" />
</g>
</g>
</svg>