<svg xmlns="http://www.w3.org/2000/svg" xmlns:xlink="http://www.w3.org/1999/xlink" version="1.1" width="256" height="256" viewBox="0 0 256 256" xml:space="preserve">
<desc>Created with Fabric.js 1.7.22</desc>
<defs>
</defs>
<g transform="translate(128 128) scale(0.72 0.72)" style="">
	<g style="stroke: none; stroke-width: 0; stroke-dasharray: none; stroke-linecap: butt; stroke-linejoin: miter; stroke-miterlimit: 10; fill: none; fill-rule: nonzero; opacity: 1;" transform="translate(-175.05 -175.05000000000004) scale(3.89 3.89)" >
	<path d="M 58.458 25.977 c -2.272 0 -4.121 -1.849 -4.121 -4.121 c 0 -1.559 0.886 -2.598 1.667 -3.514 c 0.553 -0.65 1.076 -1.263 1.317 -2.053 c 0.154 -0.504 0.611 -0.842 1.137 -0.842 c 0.526 0 0.983 0.338 1.138 0.841 c 0.24 0.79 0.763 1.403 1.316 2.052 c 0.783 0.92 1.667 1.959 1.667 3.516 C 62.579 24.128 60.73 25.977 58.458 25.977 z M 58.458 18.456 c -0.297 0.437 -0.624 0.822 -0.933 1.183 c -0.736 0.865 -1.188 1.435 -1.188 2.217 c 0 1.169 0.951 2.121 2.121 2.121 s 2.121 -0.952 2.121 -2.121 c 0 -0.782 -0.451 -1.351 -1.187 -2.216 C 59.083 19.278 58.756 18.893 58.458 18.456 z" style="stroke: none; stroke-width: 1; stroke-dasharray: none; stroke-linecap: butt; stroke-linejoin: miter; stroke-miterlimit: 10; fill: rgb(0,0,0); fill-rule: nonzero; opacity: 1;" transform=" matrix(1 0 0 1 0 0) " stroke-linecap="round" />
	<path d="M 43.67 22.369 c -0.372 0 -0.75 -0.063 -1.119 -0.198 l -10.924 -3.972 c -0.825 -0.3 -1.483 -0.903 -1.854 -1.698 s -0.41 -1.687 -0.11 -2.511 l 3.674 -10.106 c 0.091 -0.249 0.277 -0.452 0.517 -0.564 c 0.241 -0.111 0.515 -0.123 0.765 -0.034 l 15.218 5.533 c 0.249 0.091 0.452 0.277 0.564 0.517 s 0.124 0.516 0.033 0.765 l -0.319 0.878 l 8.001 0.881 c 0.445 0.049 0.804 0.388 0.877 0.83 c 0.074 0.441 -0.155 0.878 -0.56 1.069 l -11.26 5.309 l -0.414 1.14 C 46.275 21.539 45.013 22.369 43.67 22.369 z M 34.875 5.507 l -3.333 9.166 c -0.117 0.322 -0.102 0.671 0.043 0.982 c 0.145 0.311 0.402 0.546 0.725 0.664 l 10.924 3.972 c 0.322 0.118 0.671 0.103 0.982 -0.043 c 0.311 -0.145 0.546 -0.403 0.664 -0.725 l 0.555 -1.526 c 0.09 -0.248 0.275 -0.451 0.514 -0.563 l 8.427 -3.974 l -5.745 -0.633 c -0.306 -0.034 -0.578 -0.206 -0.74 -0.466 s -0.195 -0.582 -0.09 -0.87 l 0.412 -1.134 L 34.875 5.507 z" style="stroke: none; stroke-width: 1; stroke-dasharray: none; stroke-linecap: butt; stroke-linejoin: miter; stroke-miterlimit: 10; fill: rgb(0,0,0); fill-rule: nonzero; opacity: 1;" transform=" matrix(1 0 0 1 0 0) " stroke-linecap="round" />
	<path d="M 31.235 13.592 c -0.113 0 -0.229 -0.02 -0.341 -0.061 l -0.336 -0.122 c 0 0 0 0 0 0 c -2.468 -0.898 -3.747 -3.637 -2.85 -6.105 c 0.898 -2.47 3.636 -3.749 6.106 -2.85 l 0.335 0.122 c 0.25 0.091 0.453 0.276 0.565 0.517 c 0.112 0.24 0.124 0.515 0.034 0.765 l -2.573 7.075 C 32.027 13.339 31.644 13.592 31.235 13.592 z M 32.184 6.166 c -0.398 0 -0.795 0.087 -1.167 0.261 c -0.669 0.312 -1.177 0.866 -1.429 1.56 c -0.445 1.225 0.033 2.564 1.075 3.252 l 1.838 -5.054 C 32.396 6.172 32.29 6.166 32.184 6.166 z" style="stroke: none; stroke-width: 1; stroke-dasharray: none; stroke-linecap: butt; stroke-linejoin: miter; stroke-miterlimit: 10; fill: rgb(0,0,0); fill-rule: nonzero; opacity: 1;" transform=" matrix(1 0 0 1 0 0) " stroke-linecap="round" />
	<path d="M 42.084 8.064 c -0.113 0 -0.229 -0.02 -0.342 -0.061 c -0.519 -0.189 -0.787 -0.763 -0.598 -1.282 l 1.538 -4.231 c 0.189 -0.519 0.763 -0.786 1.282 -0.598 c 0.519 0.189 0.787 0.763 0.598 1.282 l -1.538 4.231 C 42.876 7.812 42.493 8.064 42.084 8.064 z" style="stroke: none; stroke-width: 1; stroke-dasharray: none; stroke-linecap: butt; stroke-linejoin: miter; stroke-miterlimit: 10; fill: rgb(0,0,0); fill-rule: nonzero; opacity: 1;" transform=" matrix(1 0 0 1 0 0) " stroke-linecap="round" />
	<path d="M 48.372 5.56 c -0.113 0 -0.229 -0.02 -0.342 -0.061 l -9.79 -3.56 c -0.519 -0.189 -0.787 -0.763 -0.598 -1.282 c 0.189 -0.52 0.764 -0.786 1.282 -0.598 l 9.79 3.56 c 0.519 0.189 0.787 0.763 0.598 1.282 C 49.164 5.308 48.78 5.56 48.372 5.56 z" style="stroke: none; stroke-width: 1; stroke-dasharray: none; stroke-linecap: butt; stroke-linejoin: miter; stroke-miterlimit: 10; fill: rgb(0,0,0); fill-rule: nonzero; opacity: 1;" transform=" matrix(1 0 0 1 0 0) " stroke-linecap="round" />
	<path d="M 72.071 49.3 c -17.962 -0.955 -36.179 -0.955 -54.143 0 l -0.106 -1.998 c 18.034 -0.956 36.321 -0.956 54.354 0 L 72.071 49.3 z" style="stroke: none; stroke-width: 1; stroke-dasharray: none; stroke-linecap: butt; stroke-linejoin: miter; stroke-miterlimit: 10; fill: rgb(0,0,0); fill-rule: nonzero; opacity: 1;" transform=" matrix(1 0 0 1 0 0) " stroke-linecap="round" />
	<path d="M 22.469 90 H 11.987 c -1.862 0 -3.377 -1.515 -3.377 -3.377 V 76.009 c 0 -0.553 0.448 -1 1 -1 s 1 0.447 1 1 v 10.614 c 0 0.759 0.618 1.377 1.377 1.377 h 10.482 c 0.759 0 1.377 -0.618 1.377 -1.377 v -5.526 c 0 -0.553 0.448 -1 1 -1 s 1 0.447 1 1 v 5.526 C 25.846 88.485 24.331 90 22.469 90 z" style="stroke: none; stroke-width: 1; stroke-dasharray: none; stroke-linecap: butt; stroke-linejoin: miter; stroke-miterlimit: 10; fill: rgb(0,0,0); fill-rule: nonzero; opacity: 1;" transform=" matrix(1 0 0 1 0 0) " stroke-linecap="round" />
	<path d="M 78.013 90 H 67.53 c -1.862 0 -3.377 -1.515 -3.377 -3.377 v -5.304 c 0 -0.553 0.447 -1 1 -1 s 1 0.447 1 1 v 5.304 c 0 0.759 0.618 1.377 1.377 1.377 h 10.482 c 0.759 0 1.377 -0.618 1.377 -1.377 V 76 c 0 -0.553 0.447 -1 1 -1 s 1 0.447 1 1 v 10.623 C 81.39 88.485 79.875 90 78.013 90 z" style="stroke: none; stroke-width: 1; stroke-dasharray: none; stroke-linecap: butt; stroke-linejoin: miter; stroke-miterlimit: 10; fill: rgb(0,0,0); fill-rule: nonzero; opacity: 1;" transform=" matrix(1 0 0 1 0 0) " stroke-linecap="round" />
	<path d="M 73.268 82.097 H 16.732 c -4.524 0 -8.264 -3.539 -8.514 -8.056 l -0.434 -7.843 c -0.294 -5.326 1.659 -10.584 5.358 -14.425 l 3.876 -4.025 l 4.667 -11.657 c 0.834 -2.085 2.72 -3.542 4.921 -3.803 c 12.205 -1.442 24.58 -1.442 36.784 0 c 2.202 0.261 4.088 1.718 4.923 3.803 l 4.665 11.657 l 3.877 4.025 c 3.699 3.841 5.652 9.099 5.357 14.425 l -0.434 7.843 C 81.531 78.558 77.791 82.097 73.268 82.097 z M 45 33.206 c -6.067 0 -12.132 0.356 -18.158 1.068 c -1.473 0.174 -2.737 1.155 -3.3 2.56 l -4.811 12.02 l -4.147 4.307 c -3.315 3.442 -5.065 8.154 -4.802 12.928 l 0.434 7.842 c 0.191 3.458 3.054 6.167 6.517 6.167 h 56.535 c 3.463 0 6.325 -2.709 6.517 -6.167 l 0.434 -7.843 c 0.264 -4.772 -1.486 -9.483 -4.803 -12.927 l -4.146 -4.307 l -0.073 -0.181 l -4.738 -11.839 c -0.562 -1.405 -1.826 -2.386 -3.3 -2.56 C 57.134 33.562 51.065 33.206 45 33.206 z" style="stroke: none; stroke-width: 1; stroke-dasharray: none; stroke-linecap: butt; stroke-linejoin: miter; stroke-miterlimit: 10; fill: rgb(0,0,0); fill-rule: nonzero; opacity: 1;" transform=" matrix(1 0 0 1 0 0) " stroke-linecap="round" />
	<path d="M 20.997 75.67 h -2.994 c -0.552 0 -1 -0.447 -1 -1 s 0.448 -1 1 -1 h 2.994 c 0.552 0 1 0.447 1 1 S 21.549 75.67 20.997 75.67 z" style="stroke: none; stroke-width: 1; stroke-dasharray: none; stroke-linecap: butt; stroke-linejoin: miter; stroke-miterlimit: 10; fill: rgb(0,0,0); fill-rule: nonzero; opacity: 1;" transform=" matrix(1 0 0 1 0 0) " stroke-linecap="round" />
	<path d="M 72.003 75.67 h -3.006 c -0.553 0 -1 -0.447 -1 -1 s 0.447 -1 1 -1 h 3.006 c 0.553 0 1 0.447 1 1 S 72.556 75.67 72.003 75.67 z" style="stroke: none; stroke-width: 1; stroke-dasharray: none; stroke-linecap: butt; stroke-linejoin: miter; stroke-miterlimit: 10; fill: rgb(0,0,0); fill-rule: nonzero; opacity: 1;" transform=" matrix(1 0 0 1 0 0) " stroke-linecap="round" />
	<path d="M 55.361 76.109 H 34.639 c -1.279 0 -2.429 -0.711 -3.001 -1.854 l -0.645 -1.29 c -0.523 -1.048 -0.469 -2.269 0.147 -3.265 c 0.616 -0.996 1.683 -1.591 2.854 -1.591 h 22.012 c 1.172 0 2.238 0.595 2.854 1.591 c 0.615 0.996 0.67 2.217 0.146 3.265 l -0.645 1.29 C 57.789 75.398 56.64 76.109 55.361 76.109 z M 33.994 70.109 c -0.48 0 -0.9 0.234 -1.152 0.643 s -0.274 0.889 -0.06 1.318 l 0.645 1.29 c 0.231 0.462 0.695 0.749 1.212 0.749 h 20.722 c 0.517 0 0.98 -0.287 1.212 -0.749 l 0.645 -1.29 c 0.215 -0.43 0.193 -0.91 -0.059 -1.318 c -0.253 -0.408 -0.673 -0.643 -1.153 -0.643 H 33.994 z" style="stroke: none; stroke-width: 1; stroke-dasharray: none; stroke-linecap: butt; stroke-linejoin: miter; stroke-miterlimit: 10; fill: rgb(0,0,0); fill-rule: nonzero; opacity: 1;" transform=" matrix(1 0 0 1 0 0) " stroke-linecap="round" />
	<path d="M 24.401 70.109 h -7.802 c -2.168 0 -3.932 -1.765 -3.932 -3.933 v -2.07 c 0 -1.23 0.56 -2.366 1.535 -3.117 c 0.976 -0.75 2.217 -1 3.406 -0.684 l 7.801 2.07 c 1.722 0.458 2.924 2.021 2.924 3.801 C 28.333 68.345 26.569 70.109 24.401 70.109 z M 16.594 62.173 c -0.419 0 -0.83 0.138 -1.173 0.402 c -0.479 0.368 -0.754 0.927 -0.754 1.531 v 2.07 c 0 1.065 0.867 1.933 1.932 1.933 h 7.802 c 1.065 0 1.932 -0.867 1.932 -1.933 c 0 -0.875 -0.591 -1.643 -1.437 -1.867 l -7.801 -2.07 C 16.929 62.195 16.761 62.173 16.594 62.173 z" style="stroke: none; stroke-width: 1; stroke-dasharray: none; stroke-linecap: butt; stroke-linejoin: miter; stroke-miterlimit: 10; fill: rgb(0,0,0); fill-rule: nonzero; opacity: 1;" transform=" matrix(1 0 0 1 0 0) " stroke-linecap="round" />
	<path d="M 73.4 70.109 H 65.6 c -2.168 0 -3.933 -1.765 -3.933 -3.933 c 0 -1.78 1.202 -3.343 2.923 -3.801 l 7.802 -2.07 c 1.188 -0.318 2.431 -0.067 3.406 0.684 s 1.535 1.887 1.535 3.117 v 2.07 C 77.333 68.345 75.568 70.109 73.4 70.109 z M 73.405 62.173 c -0.166 0 -0.334 0.022 -0.5 0.066 l -7.802 2.07 c -0.846 0.225 -1.437 0.992 -1.437 1.867 c 0 1.065 0.867 1.933 1.933 1.933 H 73.4 c 1.065 0 1.933 -0.867 1.933 -1.933 v -2.07 c 0 -0.604 -0.275 -1.163 -0.755 -1.531 C 74.235 62.311 73.825 62.173 73.405 62.173 z" style="stroke: none; stroke-width: 1; stroke-dasharray: none; stroke-linecap: butt; stroke-linejoin: miter; stroke-miterlimit: 10; fill: rgb(0,0,0); fill-rule: nonzero; opacity: 1;" transform=" matrix(1 0 0 1 0 0) " stroke-linecap="round" />
</g>
</g>
</svg>